<?xml version="1.0" encoding="UTF-8"?>
<svg xmlns="http://www.w3.org/2000/svg" version="1.1" viewBox="0 0 35.3 40.2">
  <defs>
    <style>
      .cls-1 {
        fill: #fff;
        stroke: #000;
        stroke-linecap: round;
        stroke-linejoin: round;
        stroke-width: 2px;
      }
    </style>
  </defs>
  <!-- Generator: Adobe Illustrator 28.6.0, SVG Export Plug-In . SVG Version: 1.2.0 Build 709)  -->
  <g>
    <g id="b">
      <g id="c">
        <g>
          <g>
            <polygon class="cls-1" points="17.7 20.1 1 10.5 17.7 1 34.3 10.5 17.7 20.1"/>
            <g>
              <ellipse cx="18.1" cy="6" rx="2.1" ry="1.2"/>
              <ellipse cx="13.8" cy="8.4" rx="2.1" ry="1.2"/>
              <ellipse cx="9.6" cy="10.8" rx="2.1" ry="1.2"/>
              <ellipse cx="25.4" cy="10.2" rx="2.1" ry="1.2"/>
              <ellipse cx="21.1" cy="12.6" rx="2.1" ry="1.2"/>
              <ellipse cx="16.9" cy="15" rx="2.1" ry="1.2"/>
            </g>
          </g>
          <g>
            <polygon class="cls-1" points="17.7 39.2 1 29.6 1 10.5 17.7 20.1 17.7 39.2"/>
            <g>
              <ellipse cx="5.2" cy="17.9" rx="1.2" ry="2.1" transform="translate(-8.3 5.1) rotate(-30.4)"/>
              <ellipse cx="12.6" cy="31.8" rx="1.2" ry="2.1" transform="translate(-14.4 10.7) rotate(-30.4)"/>
            </g>
          </g>
          <g>
            <polygon class="cls-1" points="34.3 29.6 17.7 39.2 17.7 20.1 34.3 10.5 34.3 29.6"/>
            <g>
              <ellipse cx="22.6" cy="22.1" rx="2.1" ry="1.2" transform="translate(-7.9 30.4) rotate(-59.6)"/>
              <ellipse cx="22.6" cy="31.8" rx="2.1" ry="1.2" transform="translate(-16.3 35.2) rotate(-59.6)"/>
              <ellipse cx="30" cy="17.9" rx="2.1" ry="1.2" transform="translate(-.6 34.7) rotate(-59.6)"/>
              <ellipse cx="30" cy="27.6" rx="2.1" ry="1.2" transform="translate(-9 39.5) rotate(-59.6)"/>
            </g>
          </g>
        </g>
      </g>
    </g>
  </g>
</svg>