<?xml version="1.0" encoding="UTF-8"?>
<svg id="b" data-name="Layer_2" xmlns="http://www.w3.org/2000/svg" viewBox="0 0 425.692 490">
  <g id="c" data-name="Layer_2">
    <g>
      <polygon points="5.629 124.637 212.846 5 418.411 126.317 210.565 246.317 109.512 186.317 5.629 124.637" stroke="#75fb5c" stroke-linejoin="round" stroke-width="10"/>
      <g>
        <line x1="213.115" y1="64.845" x2="265.076" y2="94.845"/>
        <polygon points="262.576 99.175 208.264 67.645 218.115 61.958 267.576 90.515 262.576 99.175" fill="#75fb5c"/>
      </g>
      <polygon points="5.629 124.637 5 365 212.846 485 210.565 246.317 5.629 124.637" stroke="#75fb5c" stroke-linejoin="round" stroke-width="10"/>
      <polygon points="420.692 365 212.846 485 210.565 246.317 418.411 126.317 420.692 365" stroke="#75fb5c" stroke-linejoin="round" stroke-width="10"/>
      <g>
        <polyline points="213.115 184.845 317.038 124.845 265.076 94.845 315.629 65.659"/>
        <path d="M208.064,181.929l98.973-57.084-44.462-25.67c-1.547-.893-2.5-2.544-2.5-4.33s.953-3.437,2.5-4.33l50.553-29.187,5,8.66-43.053,24.856,44.462,25.67c1.547.893,2.5,2.544,2.5,4.33s-.953,3.437-2.5,4.33l-101.423,58.557-10.05-5.803Z" fill="#75fb5c"/>
      </g>
      <g>
        <line x1="161.153" y1="154.845" x2="109.192" y2="184.845"/>
        <polygon points="111.692 189.175 106.692 180.515 156.153 151.958 166.226 157.773 163.653 159.175 111.692 189.175" fill="#75fb5c"/>
      </g>
      <g>
        <line x1="109.192" y1="64.845" x2="213.115" y2="124.845"/>
        <polygon points="208.115 127.732 106.692 69.175 111.692 60.515 218.07 121.984 208.115 127.732" fill="#75fb5c"/>
      </g>
      <g>
        <line x1="109.192" y1="124.845" x2="161.153" y2="94.845"/>
        <polygon points="104.102 121.906 106.692 120.515 158.653 90.515 163.653 99.175 114.192 127.732 104.102 121.906" fill="#75fb5c"/>
      </g>
      <polygon points="296.138 436.373 296.138 316.373 348.099 286.373 348.099 406.373 296.138 436.373" stroke="#75fb5c" stroke-linejoin="round" stroke-width="10"/>
      <circle cx="326.94" cy="358.619" r="2.247" stroke="#75fb5c" stroke-linejoin="round" stroke-width="10"/>
    </g>
  </g>
</svg>