<?xml version="1.0" encoding="UTF-8"?>
<svg xmlns="http://www.w3.org/2000/svg" version="1.1" viewBox="0 0 72 72">
  <defs>
    <style>
      .cls-1 {
        stroke-width: 1.7px;
      }

      .cls-1, .cls-2, .cls-3 {
        fill: none;
        stroke: #75fb5c;
        stroke-linecap: round;
        stroke-linejoin: round;
      }

      .cls-2 {
        stroke-width: 2px;
      }

      .cls-3 {
        stroke-width: 2px;
      }
    </style>
  </defs>
  <!-- Generator: Adobe Illustrator 28.6.0, SVG Export Plug-In . SVG Version: 1.2.0 Build 709)  -->
  <g>
    <g id="emoji">
      <g id="line">
        <path class="cls-2" d="M52.5,23.8c0,4-1.8,5.9-3.8,10.5-.5,1.2-4.2,13.4-4.2,13.4h-17.2s-3-11.7-3.5-12.6c-2.4-4-4.4-6.9-4.4-11.3,0-9.1,7.4-16.5,16.6-16.5s16.5,7.4,16.5,16.5Z"/>
        <line class="cls-2" x1="36" y1="47.2" x2="36" y2="35.3"/>
        <line class="cls-2" x1="42" y1="35.3" x2="30" y2="35.3"/>
        <path class="cls-1" d="M44.2,58.8c0,3.2-3.7,5.9-8.2,5.9s-8.2-2.6-8.2-5.9c0,0,16.3,0,16.3,0Z"/>
        <line class="cls-3" x1="28" y1="55" x2="44" y2="51.5"/>
        <line class="cls-2" x1="38.2" y1="56.1" x2="44" y2="54.9"/>
        <line class="cls-2" x1="28" y1="51.6" x2="33.8" y2="50.4"/>
      </g>
    </g>
  </g>
</svg>